<?xml version="1.0" encoding="utf-8"?>
<svg xmlns="http://www.w3.org/2000/svg">
<symbol id="burger" viewBox="0 0 20 12">
  <defs>
    <style>
      .cls-1 {
        fill: #fff;
        fill-rule: evenodd;
      }
    </style>
  </defs>
  <path id="burger" class="cls-1" d="M100,1231v-2h20v2H100Zm0-7h20v2H100v-2Zm0-5h20v2H100v-2Z" transform="translate(-100 -1219)"/>

</symbol>
<symbol id="burger_close" viewBox="0 0 15.562 15.56">
  <defs>
    <style>
      .cls-1 {
        fill: #fff;
        fill-rule: evenodd;
      }
    </style>
  </defs>
  <path id="burger_close" class="cls-1" d="M687.779,1231.36l-1.414,1.42L680,1226.41l-6.366,6.37-1.414-1.42,6.365-6.36-6.364-6.37,1.414-1.41,6.364,6.36,6.363-6.36,1.414,1.42-6.363,6.36Z" transform="translate(-672.219 -1217.22)"/>

</symbol>
<symbol id="header_fb" viewBox="0 0 20 20">
  <defs>
    <style>
      .cls-1 {
        fill: #9eaab6;
        fill-rule: evenodd;
      }
    </style>
  </defs>
  <path id="header_fb" class="cls-1" d="M959,3144a10,10,0,1,1,10-10A10,10,0,0,1,959,3144Zm1.184-12.78c0-.6.077-0.92,0.7-0.92h2.1V3128h-2.573c-2.232,0-3.051,1.11-3.051,2.99v1.38H956v2.13h1.359v6.5h2.819v-6.5h2.445l0.373-2.13h-2.818Z" transform="translate(-949 -3124)"/>

</symbol>
<symbol id="header_inst" viewBox="0 0 20 20">
  <defs>
    <style>
      .cls-1 {
        fill: #9eaab6;
        fill-rule: evenodd;
      }
    </style>
  </defs>
  <path id="header_inst" class="cls-1" d="M959,3264a10,10,0,1,1,10-10A10,10,0,0,1,959,3264Zm7-12.94a4.063,4.063,0,0,0-4.06-4.06h-5.88a4.062,4.062,0,0,0-4.06,4.06v5.88a4.063,4.063,0,0,0,4.06,4.06h5.88a4.062,4.062,0,0,0,4.06-4.06v-5.88Zm-3.92,8.54h-6.16a2.52,2.52,0,0,1-2.52-2.52v-6.16a2.521,2.521,0,0,1,2.52-2.52h6.16a2.52,2.52,0,0,1,2.52,2.52v6.16A2.521,2.521,0,0,1,962.08,3259.6Zm-3.08-9.1a3.5,3.5,0,1,0,3.5,3.5A3.5,3.5,0,0,0,959,3250.5Zm3.675-1.05a0.875,0.875,0,1,0,.875.87A0.873,0.873,0,0,0,962.675,3249.45ZM959,3256.1a2.1,2.1,0,1,1,2.1-2.1A2.1,2.1,0,0,1,959,3256.1Z" transform="translate(-949 -3244)"/>

</symbol>
<symbol id="header_ok" viewBox="0 0 20 20">
  <defs>
    <style>
      .cls-1 {
        fill: #9eaab6;
        fill-rule: evenodd;
      }
    </style>
  </defs>
  <path id="header_ok" class="cls-1" d="M959,3234a10,10,0,1,1,10-10A10,10,0,0,1,959,3234Zm0-17.01a3.615,3.615,0,1,0,3.562,3.62A3.593,3.593,0,0,0,959,3216.99Zm3.837,7.84a1.04,1.04,0,0,0-1.439-.33,4.471,4.471,0,0,1-4.8,0,1.038,1.038,0,0,0-1.438.33,1.065,1.065,0,0,0,.327,1.46,6.679,6.679,0,0,0,2.068.87l-1.991,2.02a1.052,1.052,0,1,0,1.476,1.5l1.956-1.99,1.957,1.99a1.039,1.039,0,0,0,1.476,0,1.074,1.074,0,0,0,0-1.5l-1.992-2.02a6.689,6.689,0,0,0,2.068-.87A1.066,1.066,0,0,0,962.838,3224.83ZM959,3222.1a1.5,1.5,0,1,1,1.475-1.49A1.486,1.486,0,0,1,959,3222.1Z" transform="translate(-949 -3214)"/>

</symbol>
<symbol id="header_rss" viewBox="0 0 20 20">
  <defs>
    <style>
      .cls-1 {
        fill: #9eaab6;
        fill-rule: evenodd;
      }
    </style>
  </defs>
  <path id="header_rss" class="cls-1" d="M959,3174a10,10,0,1,1,10-10A10,10,0,0,1,959,3174Zm-4.5-3.99a1.505,1.505,0,1,0-1.5-1.51A1.507,1.507,0,0,0,954.5,3170.01ZM953,3164a6,6,0,0,1,5.993,6.01h2a8,8,0,0,0-7.99-8.02V3164Zm0-6.01v2a10,10,0,0,1,9.988,10.02h2A12,12,0,0,0,953,3157.99Z" transform="translate(-949 -3154)"/>

</symbol>
<symbol id="header_tw" viewBox="0 0 20 20">
  <defs>
  <style>
      .cls-1 {
        fill: #9eaab6;
        fill-rule: evenodd;
      }
    </style>
  </defs>
  <path id="header_tw" class="cls-1" d="M959,3114a10,10,0,1,1,10-10A10,10,0,0,1,959,3114Zm6.679-15.14a5.618,5.618,0,0,1-1.71.64,2.721,2.721,0,0,0-4.6,2.45,7.65,7.65,0,0,1-5.52-2.79,2.873,2.873,0,0,0,.79,3.58,2.937,2.937,0,0,1-1.14-.33,2.684,2.684,0,0,0,2.08,2.68,3.346,3.346,0,0,1-1.14.03,2.671,2.671,0,0,0,2.46,1.88,5.381,5.381,0,0,1-3.9,1.08,7.009,7.009,0,0,0,4.28,1.23c4.41-.2,7.36-3.36,7.43-7.98a4.774,4.774,0,0,0,1.29-1.41,4.413,4.413,0,0,1-1.44.41A2.918,2.918,0,0,0,965.679,3098.86Z" transform="translate(-949 -3094)"/>

</symbol>
<symbol id="header_vk" viewBox="0 0 20 20">
  <defs>
    <style>
      .cls-1 {
        fill: #9eaab6;
        fill-rule: evenodd;
      }
    </style>
  </defs>
  <path id="header_vk" class="cls-1" d="M959,3204a10,10,0,1,1,10-10A10,10,0,0,1,959,3204Zm2.576-10.06v-0.03a2.343,2.343,0,0,0,1.692-2.37,2.685,2.685,0,0,0-2.953-2.54h-5.3v11.01h4.854c2.961,0,4.122-1.74,4.122-3.34A2.566,2.566,0,0,0,961.576,3193.94Zm-1.025,3.79a2.85,2.85,0,0,1-1.506.24h-1.3v-2.74h1.412a2.892,2.892,0,0,1,1.34.21A1.368,1.368,0,0,1,960.551,3197.73Zm-1.989-4.37h-0.813v-2.41h0.615a3.828,3.828,0,0,1,1.522.16,1.148,1.148,0,0,1,.562,1,1.257,1.257,0,0,1-.479,1A2.424,2.424,0,0,1,958.562,3193.36Z" transform="translate(-949 -3184)"/>

</symbol>
<symbol id="important" viewBox="0 0 8 16">
  <defs>
    <style>
      .cls-1 {
        fill: #fff;
        fill-rule: evenodd;
      }
    </style>
  </defs>
  <path id="important" class="cls-1" d="M201,478v8.8h2.4V494l5.6-9.6h-3.2L209,478h-8Z" transform="translate(-201 -478)"/>

</symbol>
<symbol id="login_header" viewBox="0 0 20 20">
  <defs>
    <style>
      .cls-1 {
        fill: #9eaab6;
        fill-rule: evenodd;
      }
    </style>
  </defs>
  <path id="login_header" class="cls-1" d="M181,1120a10,10,0,1,1,10-10A10,10,0,0,1,181,1120Zm0-15a2.431,2.431,0,1,0,2.5,2.43A2.467,2.467,0,0,0,181,1105Zm5,9.19c0-1.63-3.334-2.44-5-2.44s-5,.81-5,2.44V1115h10v-0.81Z" transform="translate(-171 -1100)"/>

</symbol>
<symbol id="logo" viewBox="0 0 205 66">
  <defs>
    <style>
      .cls-1 {
        fill: #fff;
      }

      .cls-1, .cls-2, .cls-3 {
        fill-rule: evenodd;
      }

      .cls-2 {
        fill: #c52a19;
      }

      .cls-3 {
        fill: #0e1d2e;
      }
    </style>
  </defs>
  <path class="cls-1" d="M338.979,301.957v-3.984h-9.437a0.556,0.556,0,0,1-.551-0.558v-4.85a0.556,0.556,0,0,1,.551-0.558h14.9a0.555,0.555,0,0,1,.551.558V317.44a0.555,0.555,0,0,1-.551.558h-14.9a0.556,0.556,0,0,1-.551-0.558V302.515a0.556,0.556,0,0,1,.551-0.558h9.437Zm0.031,6.028h-4v3.985h4v-3.985ZM388.982,298h-3.97V317.44a0.555,0.555,0,0,1-.551.558h-4.916a0.556,0.556,0,0,1-.551-0.558V292.565a0.556,0.556,0,0,1,.551-0.558H392a0.527,0.527,0,0,1,.389.164l2.458,2.487a0.541,0.541,0,0,1,.162.395V317.44a0.556,0.556,0,0,1-.551.558h-4.927a0.556,0.556,0,0,1-.551-0.558V298ZM359.005,298h-4.019V317.44a0.556,0.556,0,0,1-.552.558h-4.881A0.555,0.555,0,0,1,349,317.44V292.565a0.555,0.555,0,0,1,.551-0.558H361.98a0.53,0.53,0,0,1,.39.164l2.458,2.487a0.544,0.544,0,0,1,.161.395V317.44a0.555,0.555,0,0,1-.551.558h-4.882a0.556,0.556,0,0,1-.551-0.558V298Zm15.988,4.52V317.44a0.556,0.556,0,0,1-.551.558h-4.916a0.555,0.555,0,0,1-.551-0.558V302.515a0.555,0.555,0,0,1,.551-0.558h4.916a0.556,0.556,0,0,1,.551.558M316,298.012V302h8.427a0.556,0.556,0,0,1,.551.558V317.44a0.556,0.556,0,0,1-.551.558H310.537a0.556,0.556,0,0,1-.552-0.558v-4.89a0.555,0.555,0,0,1,.552-0.557h8.469v-3.988h-8.469a0.556,0.556,0,0,1-.552-0.558V292.565a0.556,0.556,0,0,1,.552-0.558h13.894a0.556,0.556,0,0,1,.551.558v4.89a0.555,0.555,0,0,1-.551.557H316Zm-36.027,9.993h-8.426a0.555,0.555,0,0,1-.551-0.558V292.565a0.555,0.555,0,0,1,.551-0.558h13.876a0.556,0.556,0,0,1,.551.558v4.89a0.555,0.555,0,0,1-.551.557h-8.409V302h8.409a0.556,0.556,0,0,1,.551.558V317.44a0.556,0.556,0,0,1-.551.558H271.551A0.555,0.555,0,0,1,271,317.44v-4.89a0.555,0.555,0,0,1,.551-0.557h8.426v-3.988Zm16.022,3.9h3.984V292.565a0.555,0.555,0,0,1,.551-0.558h4.916a0.555,0.555,0,0,1,.551.558V317.44a0.555,0.555,0,0,1-.551.558H292.989a0.527,0.527,0,0,1-.389-0.164l-2.458-2.487a0.541,0.541,0,0,1-.162-0.395V292.565a0.556,0.556,0,0,1,.551-0.558h4.916a0.556,0.556,0,0,1,.552.558v19.342Z" transform="translate(-190 -272)"/>
  <path class="cls-2" d="M375.01,292.687v4.819a0.467,0.467,0,0,1-.483.486H369.68a0.66,0.66,0,0,1-.473-0.209,0.672,0.672,0,0,1-.207-0.477v-4.819a0.467,0.467,0,0,1,.483-0.487l4.847,0a0.656,0.656,0,0,1,.473.207A0.676,0.676,0,0,1,375.01,292.687Z" transform="translate(-190 -272)"/>
  <path class="cls-3" d="M223.006,272A33,33,0,1,1,190,305a33,33,0,0,1,33.006-33" transform="translate(-190 -272)"/>
  <path class="cls-2" d="M214.167,297.28v5.263l24.108-2.955a0.449,0.449,0,0,1,.361.116,0.454,0.454,0,0,1,.157.347v18.493a0.413,0.413,0,0,1-.367.418l-30.783,3.776a0.457,0.457,0,0,1-.361-0.117,0.452,0.452,0,0,1-.158-0.347v-6.165a0.414,0.414,0,0,1,.368-0.418l24.259-2.974v-5.264l-24.108,2.955a0.445,0.445,0,0,1-.361-0.116,0.45,0.45,0,0,1-.158-0.347V291.452a0.414,0.414,0,0,1,.368-0.419l18.47-2.264a0.447,0.447,0,0,1,.361.116,0.451,0.451,0,0,1,.157.347V295.4a0.414,0.414,0,0,1-.367.419Z" transform="translate(-190 -272)"/>
  <path class="cls-1" d="M238.426,294.305l-6.157.754a0.439,0.439,0,0,1-.36-0.115,0.452,0.452,0,0,1-.158-0.347v-6.164a0.413,0.413,0,0,1,.368-0.419l6.156-.755a0.449,0.449,0,0,1,.361.116,0.454,0.454,0,0,1,.157.346v6.165a0.414,0.414,0,0,1-.367.419" transform="translate(-190 -272)"/>

</symbol>
<symbol id="search_header_big" viewBox="0 0 30.875 30.844">
  <defs>
    <style>
      .cls-1 {
        fill: #9eaab6;
        fill-rule: evenodd;
      }
    </style>
  </defs>
  <path id="search_header_big_a" class="cls" d="M110.986,978.671l-1.812,1.813-7.824-7.824a13,13,0,1,1,1.813-1.813Zm-10.1-23.842a11,11,0,1,0,0,15.555A11,11,0,0,0,100.888,954.829Z" transform="translate(-80.125 -949.625)"/>

</symbol></svg>
