<svg xmlns="http://www.w3.org/2000/svg" width="30" height="30" viewBox="0 0 30 30">
  <defs>
    <style>
      .cls-1 {
        fill: #9eaab6;
        fill-rule: evenodd;
      }
    </style>
  </defs>
  <path id="close_popup_stroke_btn" class="cls-1" d="M955,2450a15,15,0,1,1,15-15A15,15,0,0,1,955,2450Zm0-28a13,13,0,1,0,13,13A13,13,0,0,0,955,2422Zm4.365,18.78L955,2436.41l-4.366,4.37-1.415-1.42,4.366-4.36-4.364-4.37,1.414-1.41,4.364,4.36,4.363-4.36,1.414,1.42-4.363,4.36,4.364,4.36Z" transform="translate(-940 -2420)"/>
</svg>
