<svg xmlns="http://www.w3.org/2000/svg" width="17" height="17" viewBox="0 0 17 17">
  <defs>
    <style>
      .cls-1 {
        fill: #8e959d;
        fill-rule: evenodd;
      }
    </style>
  </defs>
  <path id="comments_icon" class="cls-1" d="M2765,235.008V230h-2a3.043,3.043,0,0,1-3-3.039v-5.969a3,3,0,0,1,3-2.988h11a3,3,0,0,1,3,2.988v5.969a3.043,3.043,0,0,1-3,3.039l-2.65-.05Zm-2-15.016a1,1,0,0,0-1,1v5.969a1,1,0,0,0,1,1h4v2.907l3.65-2.907H2774a1,1,0,0,0,1-1v-5.969a1,1,0,0,0-1-1h-11Z" transform="translate(-2760 -218)"/>
</svg>
