<svg xmlns="http://www.w3.org/2000/svg" width="18" height="12.938" viewBox="0 0 18 12.938">
  <defs>
    <style>
      .cls-1 {
        fill: #8e959d;
        fill-rule: evenodd;
      }
    </style>
  </defs>
  <path id="eye_icon" class="cls-1" d="M2796,230.558c-4.97,0-9-4.922-9-6.473s4.03-6.473,9-6.473,9,5.124,9,6.473S2800.97,230.558,2796,230.558Zm0-10.891c-3.47,0-6.41,3.225-6.95,4.418,0.54,1.191,3.48,4.418,6.95,4.418,3.42,0,6.26-3.206,6.91-4.418C2802.26,222.874,2799.42,219.667,2796,219.667Zm0,6.987a2.569,2.569,0,1,1,2.5-2.569A2.536,2.536,0,0,1,2796,226.654Z" transform="translate(-2787 -217.625)"/>
</svg>
