<svg xmlns="http://www.w3.org/2000/svg" width="42" height="37.5" viewBox="0 0 42 37.5">
  <defs>
    <style>
      .cls-1 {
        fill: #19232e;
        fill-rule: evenodd;
      }
    </style>
  </defs>
  <path id="footer_yama" class="cls-1" d="M954.7,2885.52c-1.861,0-2.909,1.72-3.9,2.72a2.263,2.263,0,0,1-1.65.65v2.93h23.146v-2.93a2.265,2.265,0,0,1-1.65-.65c-1-1-2.042-2.72-3.9-2.72-2.3,0-3.848,3.37-6.019,3.37S957,2885.52,954.7,2885.52Zm26.9,9.17-18.864-33.19c-0.955-1.68-2.519-1.68-3.475,0L940.4,2894.69c-0.956,1.68-.174,3.06,1.737,3.06h37.727C981.774,2897.75,982.555,2896.37,981.6,2894.69Zm-37.8.05,17.2-30.26,17.2,30.26H943.8Z" transform="translate(-940 -2860.25)"/>
</svg>
