<svg xmlns="http://www.w3.org/2000/svg" width="20" height="20" viewBox="0 0 20 20">
  <defs>
    <style>
      .cls-1 {
        fill: #9eaab6;
        fill-rule: evenodd;
      }
    </style>
  </defs>
  <path id="footer_18plus" class="cls-1" d="M950.841,2830.65a5.706,5.706,0,0,0-1.411.21v1.65c0,1.03.365,1.38,1.6,1.38,1.289,0,1.446-.56,1.446-1.68C952.478,2830.99,952.182,2830.65,950.841,2830.65Zm8.79-1.54a0.342,0.342,0,0,0,.366-0.4v-2.51a2.33,2.33,0,0,0-.679-1.67l-3.954-4.01a1.969,1.969,0,0,0-1.481-.52h-7.77a1.967,1.967,0,0,0-1.48.52l-3.955,4.01a2.263,2.263,0,0,0-.679,1.67v7.69a2,2,0,0,0,.644,1.57l3.885,3.88a2.128,2.128,0,0,0,1.585.66h7.77a2.128,2.128,0,0,0,1.585-.66l3.885-3.88a2.032,2.032,0,0,0,.644-1.57v-2.65a0.333,0.333,0,0,0-.366-0.35h-1.167v0.82c0,0.61-.087.92-0.609,0.92h-0.523c-0.523,0-.61-0.31-0.61-0.92v-0.82H955.9c-0.61,0-.924-0.09-0.924-0.61v-0.56c0-.52.314-0.61,0.924-0.61h0.818v-0.81c0-.61.087-0.93,0.61-0.93h0.523c0.522,0,.609.32,0.609,0.93v0.81h1.167Zm-13.263,5.46c0,0.61-.105.92-0.61,0.92h-0.592c-0.506,0-.61-0.31-0.61-0.92v-7.53c0-.35-0.105-0.47-0.331-0.47h-0.366c-0.61,0-.923-0.11-0.923-0.61v-0.58c0-.5.313-0.61,0.923-0.61h1.585c0.61,0,.924.11,0.924,0.61v9.19Zm4.63,1.06c-3.572,0-3.345-1.74-3.363-5.68,0-4.08.366-5.37,3.554-5.37,2.038,0,2.927.53,2.927,2.58,0,0.47-.192.59-0.68,0.59h-0.418c-0.4,0-.644-0.1-0.644-0.45,0-.85-0.262-0.92-1.446-0.92-1.377,0-1.5.59-1.5,2.23v0.35a0.231,0.231,0,0,0,.313.24,6.709,6.709,0,0,1,1.324-.12c2.108,0,3.205.56,3.205,2.93C954.272,2834.88,953.262,2835.63,951,2835.63Z" transform="translate(-940 -2820)"/>
</svg>
