<svg xmlns="http://www.w3.org/2000/svg" width="32" height="41" viewBox="0 0 32 41">
  <defs>
    <style>
      .cls-1 {
        fill: #19232e;
        fill-rule: evenodd;
      }
    </style>
  </defs>
  <path id="footer_map" class="cls-1" d="M956,2960.99l-0.608-.34c-0.628-.36-15.39-8.82-15.39-24.07,0-9.14,7.179-16.58,16-16.58s16,7.44,16,16.58c0,15.38-14.768,23.72-15.4,24.07Zm0-38.33a13.7,13.7,0,0,0-13.428,13.92c0,12.01,10.731,19.62,13.431,21.35,2.7-1.71,13.425-9.26,13.425-21.35A13.7,13.7,0,0,0,956,2922.66Zm6.991,10.32H949.009V2930h13.982v2.98Zm0,6H949.009V2936h13.982v2.98Zm0,6H949.009V2942h13.982v2.98Z" transform="translate(-940 -2920)"/>
</svg>
