<svg xmlns="http://www.w3.org/2000/svg" width="30" height="30" viewBox="0 0 30 30">
  <defs>
    <style>
      .cls-1 {
        fill: #9eaab6;
        fill-rule: evenodd;
      }
    </style>
  </defs>
  <path id="footer_tw" class="cls-1" d="M955,2690a15,15,0,1,1,15-15A15,15,0,0,1,955,2690Zm10.019-21.71a8.428,8.428,0,0,1-2.565.96c-2.325-2.81-7.889-.53-6.9,3.67a11.489,11.489,0,0,1-8.28-4.18,4.294,4.294,0,0,0,1.185,5.36,4.326,4.326,0,0,1-1.71-.49,4.027,4.027,0,0,0,3.12,4.02,5.148,5.148,0,0,1-1.71.05,4.013,4.013,0,0,0,3.69,2.82,8.094,8.094,0,0,1-5.85,1.62,10.545,10.545,0,0,0,6.42,1.84c6.615-.3,11.04-5.04,11.145-11.97a7.193,7.193,0,0,0,1.935-2.11,6.618,6.618,0,0,1-2.16.61A4.364,4.364,0,0,0,965.019,2668.29Z" transform="translate(-940 -2660)"/>
</svg>
