<svg xmlns="http://www.w3.org/2000/svg" width="20" height="20" viewBox="0 0 20 20">
  <defs>
    <style>
      .cls-1 {
        fill: #9eaab6;
        fill-rule: evenodd;
      }
    </style>
  </defs>
  <path id="header_rss" class="cls-1" d="M959,3174a10,10,0,1,1,10-10A10,10,0,0,1,959,3174Zm-4.5-3.99a1.505,1.505,0,1,0-1.5-1.51A1.507,1.507,0,0,0,954.5,3170.01ZM953,3164a6,6,0,0,1,5.993,6.01h2a8,8,0,0,0-7.99-8.02V3164Zm0-6.01v2a10,10,0,0,1,9.988,10.02h2A12,12,0,0,0,953,3157.99Z" transform="translate(-949 -3154)"/>
</svg>
