<svg xmlns="http://www.w3.org/2000/svg" width="20" height="20" viewBox="0 0 20 20">
  <defs>
    <style>
      .cls-1 {
        fill: #9eaab6;
        fill-rule: evenodd;
      }
    </style>
  </defs>
  <path id="header_ok" class="cls-1" d="M959,3234a10,10,0,1,1,10-10A10,10,0,0,1,959,3234Zm0-17.01a3.615,3.615,0,1,0,3.562,3.62A3.593,3.593,0,0,0,959,3216.99Zm3.837,7.84a1.04,1.04,0,0,0-1.439-.33,4.471,4.471,0,0,1-4.8,0,1.038,1.038,0,0,0-1.438.33,1.065,1.065,0,0,0,.327,1.46,6.679,6.679,0,0,0,2.068.87l-1.991,2.02a1.052,1.052,0,1,0,1.476,1.5l1.956-1.99,1.957,1.99a1.039,1.039,0,0,0,1.476,0,1.074,1.074,0,0,0,0-1.5l-1.992-2.02a6.689,6.689,0,0,0,2.068-.87A1.066,1.066,0,0,0,962.838,3224.83ZM959,3222.1a1.5,1.5,0,1,1,1.475-1.49A1.486,1.486,0,0,1,959,3222.1Z" transform="translate(-949 -3214)"/>
</svg>
