<svg xmlns="http://www.w3.org/2000/svg" width="20" height="20" viewBox="0 0 20 20">
  <defs>
  <style>
      .cls-1 {
        fill: #9eaab6;
        fill-rule: evenodd;
      }
    </style>
  </defs>
  <path id="header_tw" class="cls-1" d="M959,3114a10,10,0,1,1,10-10A10,10,0,0,1,959,3114Zm6.679-15.14a5.618,5.618,0,0,1-1.71.64,2.721,2.721,0,0,0-4.6,2.45,7.65,7.65,0,0,1-5.52-2.79,2.873,2.873,0,0,0,.79,3.58,2.937,2.937,0,0,1-1.14-.33,2.684,2.684,0,0,0,2.08,2.68,3.346,3.346,0,0,1-1.14.03,2.671,2.671,0,0,0,2.46,1.88,5.381,5.381,0,0,1-3.9,1.08,7.009,7.009,0,0,0,4.28,1.23c4.41-.2,7.36-3.36,7.43-7.98a4.774,4.774,0,0,0,1.29-1.41,4.413,4.413,0,0,1-1.44.41A2.918,2.918,0,0,0,965.679,3098.86Z" transform="translate(-949 -3094)"/>
</svg>
