<svg xmlns="http://www.w3.org/2000/svg" width="20.25" height="12.75" viewBox="0 0 20.25 12.75">
  <defs>
    <style>
      .cls-1 {
        fill: #fff;
        fill-rule: evenodd;
      }
    </style>
  </defs>
  <path id="i_gp" class="cls-1" d="M1825.5,3084.46h-1.84v-1.82h-1.84v1.82h-1.84v1.82h1.84v1.82h1.84v-1.82h1.84m-13.81-1.82v2.19h3.68a3.516,3.516,0,0,1-3.68,2.73,4.005,4.005,0,0,1,0-8.01,3.55,3.55,0,0,1,2.58,1l1.75-1.64a5.988,5.988,0,0,0-4.33-1.73,6.375,6.375,0,1,0,0,12.75,5.892,5.892,0,0,0,6.17-6.2,4.112,4.112,0,0,0-.09-1.09h-6.08Z" transform="translate(-1805.25 -3079)"/>
</svg>
