<svg xmlns="http://www.w3.org/2000/svg" width="18" height="12" viewBox="0 0 18 12">
  <defs>
    <style>
      .cls-1 {
        fill: #fff;
        fill-rule: evenodd;
      }
    </style>
  </defs>
  <path id="i_mk" class="cls-1" d="M1823.51,3050.93a0.947,0.947,0,0,1-.49.13,0.972,0.972,0,0,1-.84-0.48l-0.77-1.29a9.581,9.581,0,0,1-12.82,0l-0.77,1.29a0.972,0.972,0,0,1-.84.48,1.009,1.009,0,0,1-.5-0.13,0.954,0.954,0,0,1-.35-1.31l2.03-3.41a0.984,0.984,0,0,1,1.34-.34,0.952,0.952,0,0,1,.35,1.31l-0.24.41a7.593,7.593,0,0,0,10.78-.01l-0.24-.4a0.943,0.943,0,0,1,.35-1.31,0.984,0.984,0,0,1,1.34.34l2.03,3.41A0.949,0.949,0,0,1,1823.51,3050.93Zm-5.05-7.99a1.6,1.6,0,1,1,1.63-1.59A1.609,1.609,0,0,1,1818.46,3042.94Zm-6.91,0a1.6,1.6,0,1,1,1.63-1.59A1.609,1.609,0,0,1,1811.55,3042.94Z" transform="translate(-1806 -3039.75)"/>
</svg>
