<svg xmlns="http://www.w3.org/2000/svg" width="10.47" height="17.25" viewBox="0 0 10.47 17.25">
  <defs>
    <style>
      .cls-1 {
        fill: #fff;
        fill-rule: evenodd;
      }
    </style>
  </defs>
  <path id="i_ok" class="cls-1" d="M1819.61,3008.2a9.077,9.077,0,0,1-2.72,1.07l2.62,2.49a1.263,1.263,0,0,1,0,1.84,1.421,1.421,0,0,1-1.94,0l-2.57-2.44-2.57,2.44a1.428,1.428,0,0,1-1.94,0,1.263,1.263,0,0,1,0-1.84l2.62-2.49a8.975,8.975,0,0,1-2.72-1.07,1.272,1.272,0,0,1-.43-1.8,1.415,1.415,0,0,1,1.89-.41,6.183,6.183,0,0,0,6.3,0,1.417,1.417,0,0,1,1.89.41A1.272,1.272,0,0,1,1819.61,3008.2Zm-4.61-2.56a4.456,4.456,0,1,1,4.68-4.45A4.571,4.571,0,0,1,1815,3005.64Zm0-6.29a1.843,1.843,0,1,0,1.94,1.84A1.9,1.9,0,0,0,1815,2999.35Z" transform="translate(-1809.78 -2996.75)"/>
</svg>
