<svg xmlns="http://www.w3.org/2000/svg" width="17.25" height="13.5" viewBox="0 0 17.25 13.5">
  <defs>
    <style>
      .cls-1 {
        fill: #fff;
        fill-rule: evenodd;
      }
    </style>
  </defs>
  <path id="i_tw" class="cls-1" d="M1822.24,2961.61c0.01,0.14.01,0.29,0.01,0.44a9.808,9.808,0,0,1-10.08,9.69,10.294,10.294,0,0,1-5.43-1.53,7.92,7.92,0,0,0,.85.05,7.333,7.333,0,0,0,4.4-1.46,3.535,3.535,0,0,1-3.31-2.36,3.522,3.522,0,0,0,.66.06,3.614,3.614,0,0,0,.94-0.12,3.459,3.459,0,0,1-2.85-3.34v-0.05a3.64,3.64,0,0,0,1.61.43,3.323,3.323,0,0,1-1.1-4.55,10.2,10.2,0,0,0,7.3,3.56,3.309,3.309,0,0,1-.09-0.77,3.476,3.476,0,0,1,3.54-3.41,3.623,3.623,0,0,1,2.59,1.07,7.13,7.13,0,0,0,2.25-.82,3.439,3.439,0,0,1-1.56,1.88,7.3,7.3,0,0,0,2.04-.53A7.218,7.218,0,0,1,1822.24,2961.61Z" transform="translate(-1806.75 -2958.25)"/>
</svg>
