<svg xmlns="http://www.w3.org/2000/svg" width="10.56" height="13.47" viewBox="0 0 10.56 13.47">
  <defs>
    <style>
      .cls-1 {
        fill: #fff;
        fill-rule: evenodd;
      }
    </style>
  </defs>
  <path id="i_vk" class="cls-1" d="M1816.92,2925.39a3.2,3.2,0,0,0-1.57-.26h-1.66v3.35h1.53a3.2,3.2,0,0,0,1.76-.29,1.74,1.74,0,0,0,.7-1.43A1.672,1.672,0,0,0,1816.92,2925.39Zm-0.62-2.86a1.552,1.552,0,0,0,.56-1.22,1.407,1.407,0,0,0-.66-1.22,4.049,4.049,0,0,0-1.78-.2h-0.73v2.95h0.96A2.7,2.7,0,0,0,1816.3,2922.53Zm-0.12,8.45h-5.7V2917.5h6.23a3.192,3.192,0,0,1,3.46,3.11,2.857,2.857,0,0,1-1.98,2.9v0.04a3.1,3.1,0,0,1,2.83,3.34C1821.02,2928.85,1819.65,2930.98,1816.18,2930.98Z" transform="translate(-1810.47 -2917.5)"/>
</svg>
