<svg xmlns="http://www.w3.org/2000/svg" width="17" height="17" viewBox="0 0 17 17">
  <defs>
    <style>
      .cls-1 {
        fill: #fff;
        fill-rule: evenodd;
      }
    </style>
  </defs>
  <path id="i_wa" class="cls-1" d="M1819.54,3166.16a0.9,0.9,0,0,1,.39.26,1.7,1.7,0,0,1-.18,1,2.025,2.025,0,0,1-1.45.95c-0.39.02-.39,0.31-2.51-0.62a8.563,8.563,0,0,1-3.49-3.33,4.047,4.047,0,0,1-.79-2.22,2.342,2.342,0,0,1,.81-1.73,0.62,0.62,0,0,1,.58-0.22h0.4c0.13,0,.3-0.05.47,0.38l0.58,1.59a0.374,0.374,0,0,1,.01.37l-0.23.35-0.33.36a0.3,0.3,0,0,0-.1.42,6.168,6.168,0,0,0,1.12,1.52,5.6,5.6,0,0,0,1.66,1.1,0.325,0.325,0,0,0,.46-0.03l0.68-.8a0.371,0.371,0,0,1,.5-0.1l1.42,0.75M1815.5,3156a8.5,8.5,0,1,1-4.55,15.68L1807,3173l1.32-3.96a8.382,8.382,0,0,1-1.32-4.54,8.5,8.5,0,0,1,8.5-8.5m0,1.7a6.8,6.8,0,0,0-5.56,10.72l-0.82,2.45,2.46-.81A6.8,6.8,0,1,0,1815.5,3157.7Z" transform="translate(-1807 -3156)"/>
</svg>
