<svg id="_logo" xmlns="http://www.w3.org/2000/svg" width="205" height="66" viewBox="0 0 205 66">
  <defs>
    <style>
      .cls-1 {
        fill: #fff;
      }

      .cls-1, .cls-2, .cls-3 {
        fill-rule: evenodd;
      }

      .cls-2 {
        fill: #c52a19;
      }

      .cls-3 {
        fill: #0e1d2e;
      }
    </style>
  </defs>
  <path class="cls-1" d="M338.979,301.957v-3.984h-9.437a0.556,0.556,0,0,1-.551-0.558v-4.85a0.556,0.556,0,0,1,.551-0.558h14.9a0.555,0.555,0,0,1,.551.558V317.44a0.555,0.555,0,0,1-.551.558h-14.9a0.556,0.556,0,0,1-.551-0.558V302.515a0.556,0.556,0,0,1,.551-0.558h9.437Zm0.031,6.028h-4v3.985h4v-3.985ZM388.982,298h-3.97V317.44a0.555,0.555,0,0,1-.551.558h-4.916a0.556,0.556,0,0,1-.551-0.558V292.565a0.556,0.556,0,0,1,.551-0.558H392a0.527,0.527,0,0,1,.389.164l2.458,2.487a0.541,0.541,0,0,1,.162.395V317.44a0.556,0.556,0,0,1-.551.558h-4.927a0.556,0.556,0,0,1-.551-0.558V298ZM359.005,298h-4.019V317.44a0.556,0.556,0,0,1-.552.558h-4.881A0.555,0.555,0,0,1,349,317.44V292.565a0.555,0.555,0,0,1,.551-0.558H361.98a0.53,0.53,0,0,1,.39.164l2.458,2.487a0.544,0.544,0,0,1,.161.395V317.44a0.555,0.555,0,0,1-.551.558h-4.882a0.556,0.556,0,0,1-.551-0.558V298Zm15.988,4.52V317.44a0.556,0.556,0,0,1-.551.558h-4.916a0.555,0.555,0,0,1-.551-0.558V302.515a0.555,0.555,0,0,1,.551-0.558h4.916a0.556,0.556,0,0,1,.551.558M316,298.012V302h8.427a0.556,0.556,0,0,1,.551.558V317.44a0.556,0.556,0,0,1-.551.558H310.537a0.556,0.556,0,0,1-.552-0.558v-4.89a0.555,0.555,0,0,1,.552-0.557h8.469v-3.988h-8.469a0.556,0.556,0,0,1-.552-0.558V292.565a0.556,0.556,0,0,1,.552-0.558h13.894a0.556,0.556,0,0,1,.551.558v4.89a0.555,0.555,0,0,1-.551.557H316Zm-36.027,9.993h-8.426a0.555,0.555,0,0,1-.551-0.558V292.565a0.555,0.555,0,0,1,.551-0.558h13.876a0.556,0.556,0,0,1,.551.558v4.89a0.555,0.555,0,0,1-.551.557h-8.409V302h8.409a0.556,0.556,0,0,1,.551.558V317.44a0.556,0.556,0,0,1-.551.558H271.551A0.555,0.555,0,0,1,271,317.44v-4.89a0.555,0.555,0,0,1,.551-0.557h8.426v-3.988Zm16.022,3.9h3.984V292.565a0.555,0.555,0,0,1,.551-0.558h4.916a0.555,0.555,0,0,1,.551.558V317.44a0.555,0.555,0,0,1-.551.558H292.989a0.527,0.527,0,0,1-.389-0.164l-2.458-2.487a0.541,0.541,0,0,1-.162-0.395V292.565a0.556,0.556,0,0,1,.551-0.558h4.916a0.556,0.556,0,0,1,.552.558v19.342Z" transform="translate(-190 -272)"/>
  <path class="cls-2" d="M375.01,292.687v4.819a0.467,0.467,0,0,1-.483.486H369.68a0.66,0.66,0,0,1-.473-0.209,0.672,0.672,0,0,1-.207-0.477v-4.819a0.467,0.467,0,0,1,.483-0.487l4.847,0a0.656,0.656,0,0,1,.473.207A0.676,0.676,0,0,1,375.01,292.687Z" transform="translate(-190 -272)"/>
  <path class="cls-3" d="M223.006,272A33,33,0,1,1,190,305a33,33,0,0,1,33.006-33" transform="translate(-190 -272)"/>
  <path class="cls-2" d="M214.167,297.28v5.263l24.108-2.955a0.449,0.449,0,0,1,.361.116,0.454,0.454,0,0,1,.157.347v18.493a0.413,0.413,0,0,1-.367.418l-30.783,3.776a0.457,0.457,0,0,1-.361-0.117,0.452,0.452,0,0,1-.158-0.347v-6.165a0.414,0.414,0,0,1,.368-0.418l24.259-2.974v-5.264l-24.108,2.955a0.445,0.445,0,0,1-.361-0.116,0.45,0.45,0,0,1-.158-0.347V291.452a0.414,0.414,0,0,1,.368-0.419l18.47-2.264a0.447,0.447,0,0,1,.361.116,0.451,0.451,0,0,1,.157.347V295.4a0.414,0.414,0,0,1-.367.419Z" transform="translate(-190 -272)"/>
  <path class="cls-1" d="M238.426,294.305l-6.157.754a0.439,0.439,0,0,1-.36-0.115,0.452,0.452,0,0,1-.158-0.347v-6.164a0.413,0.413,0,0,1,.368-0.419l6.156-.755a0.449,0.449,0,0,1,.361.116,0.454,0.454,0,0,1,.157.346v6.165a0.414,0.414,0,0,1-.367.419" transform="translate(-190 -272)"/>
</svg>
