<svg xmlns="http://www.w3.org/2000/svg" width="20" height="20" viewBox="0 0 20 20">
  <defs>
    <style>
      .cls-1 {
        fill: #9eaab6;
        fill-rule: evenodd;
      }
    </style>
  </defs>
  <path id="password_forgot_stroke" class="cls-1" d="M950,2500a10,10,0,1,1,10-10A10,10,0,0,1,950,2500Zm0-18a8,8,0,1,0,8,8A8,8,0,0,0,950,2482Zm3.2,7.11a4.7,4.7,0,0,1-.758.69,6.17,6.17,0,0,0-.758.64,3.281,3.281,0,0,0-.586.78,2.411,2.411,0,0,0-.241,1.15h-1.913a3.972,3.972,0,0,1,.086-1.47,3.532,3.532,0,0,1,.474-1.04,3.672,3.672,0,0,1,.689-0.76c0.259-.22.5-0.43,0.724-0.62a3.462,3.462,0,0,0,.56-0.63,1.3,1.3,0,0,0,.224-0.77,1.267,1.267,0,0,0-.336-0.92,1.6,1.6,0,0,0-1.2-.35,3.092,3.092,0,0,0-.586.06,4.751,4.751,0,0,0-.62.16,5.451,5.451,0,0,0-.594.25,4.015,4.015,0,0,0-.509.29l-0.861-1.59a6.325,6.325,0,0,1,1.507-.71,6.552,6.552,0,0,1,2.06-.28,3.883,3.883,0,0,1,2.533.75,2.493,2.493,0,0,1,.913,2.03,3.656,3.656,0,0,1-.233,1.4A3.38,3.38,0,0,1,953.2,2489.11Zm-3.222,4.35a1.478,1.478,0,0,1,1.034.34,1.176,1.176,0,0,1,.379.92,1.213,1.213,0,0,1-.379.93,1.478,1.478,0,0,1-1.034.34,1.426,1.426,0,0,1-1-.34,1.213,1.213,0,0,1-.379-0.93,1.176,1.176,0,0,1,.379-0.92A1.426,1.426,0,0,1,949.973,2493.46Z" transform="translate(-940 -2480)"/>
</svg>
