<svg xmlns="http://www.w3.org/2000/svg" width="18" height="12" viewBox="0 0 18 12">
  <defs>
    <style>
      .cls-1 {
        fill: #fff;
        fill-rule: evenodd;
      }
    </style>
  </defs>
  <path id="type_podcast" class="cls-1" d="M3141.48,220.993l-1.3-1.2a6.7,6.7,0,0,0,0-9.589l1.3-1.2A8.386,8.386,0,0,1,3141.48,220.993Zm-2.59-2.4-1.3-1.2a3.342,3.342,0,0,0,0-4.788l1.3-1.2A5.034,5.034,0,0,1,3138.89,218.6ZM3135,216.73a1.731,1.731,0,1,1,1.8-1.729A1.768,1.768,0,0,1,3135,216.73Zm-2.6.658-1.29,1.2a5.021,5.021,0,0,1,0-7.179l1.29,1.2A3.35,3.35,0,0,0,3132.4,217.388ZM3127.8,215a6.759,6.759,0,0,0,2.01,4.787l-1.3,1.2a8.394,8.394,0,0,1,0-11.973l1.3,1.2A6.764,6.764,0,0,0,3127.8,215Z" transform="translate(-3126 -209)"/>
</svg>
