<svg xmlns="http://www.w3.org/2000/svg" width="20" height="20" viewBox="0 0 20 20">
  <defs>
    <style>
      .cls-1 {
        fill: #9eaab6;
        fill-rule: evenodd;
      }
    </style>
  </defs>
  <path id="header_inst" class="cls-1" d="M959,3264a10,10,0,1,1,10-10A10,10,0,0,1,959,3264Zm7-12.94a4.063,4.063,0,0,0-4.06-4.06h-5.88a4.062,4.062,0,0,0-4.06,4.06v5.88a4.063,4.063,0,0,0,4.06,4.06h5.88a4.062,4.062,0,0,0,4.06-4.06v-5.88Zm-3.92,8.54h-6.16a2.52,2.52,0,0,1-2.52-2.52v-6.16a2.521,2.521,0,0,1,2.52-2.52h6.16a2.52,2.52,0,0,1,2.52,2.52v6.16A2.521,2.521,0,0,1,962.08,3259.6Zm-3.08-9.1a3.5,3.5,0,1,0,3.5,3.5A3.5,3.5,0,0,0,959,3250.5Zm3.675-1.05a0.875,0.875,0,1,0,.875.87A0.873,0.873,0,0,0,962.675,3249.45ZM959,3256.1a2.1,2.1,0,1,1,2.1-2.1A2.1,2.1,0,0,1,959,3256.1Z" transform="translate(-949 -3244)"/>
</svg>
