<svg xmlns="http://www.w3.org/2000/svg" width="20" height="20" viewBox="0 0 20 20">
  <defs>
    <style>
      .cls-1 {
        fill: #9eaab6;
        fill-rule: evenodd;
      }
    </style>
  </defs>
  <path id="header_vk" class="cls-1" d="M959,3204a10,10,0,1,1,10-10A10,10,0,0,1,959,3204Zm2.576-10.06v-0.03a2.343,2.343,0,0,0,1.692-2.37,2.685,2.685,0,0,0-2.953-2.54h-5.3v11.01h4.854c2.961,0,4.122-1.74,4.122-3.34A2.566,2.566,0,0,0,961.576,3193.94Zm-1.025,3.79a2.85,2.85,0,0,1-1.506.24h-1.3v-2.74h1.412a2.892,2.892,0,0,1,1.34.21A1.368,1.368,0,0,1,960.551,3197.73Zm-1.989-4.37h-0.813v-2.41h0.615a3.828,3.828,0,0,1,1.522.16,1.148,1.148,0,0,1,.562,1,1.257,1.257,0,0,1-.479,1A2.424,2.424,0,0,1,958.562,3193.36Z" transform="translate(-949 -3184)"/>
</svg>
